<svg xmlns="http://www.w3.org/2000/svg" width="76.705" height="88.414" viewBox="0 0 76.705 88.414"><defs><style>.a{fill:none;stroke:#dfdfdf;stroke-linejoin:round;stroke-miterlimit:10;stroke-width:0.72px;}</style></defs><path class="a" d="M72.387,44.092s6.47,2.706,2.923,23.38m-2.136,9.592,1.081-3.747M43.167,35.324C38.5,34.88,33.377,32.4,28.549,32.4c-13.563,0-17.535,11.854-17.535,23.38C11.014,81.05,22.707,96.7,34.362,96.7c4.892,0,10.407-2.923,14.651-2.923H49c4.249,0,9.75,2.923,14.648,2.923C75.312,96.694,87,80.936,87,55.782c0-11.474-3.96-23.38-17.535-23.38-6.6,0-13.072,2.835-19.712,2.92l-.745,0V27.3s19.669,1.368,23.38-14.613c0,0-15.226-4.545-23.389,8.768M38.775,13.406c-4.84-4.84-13.143-4.381-13.143-4.381s-.459,8.306,4.381,13.143,13.143,4.381,13.143,4.381S43.615,18.245,38.775,13.406Z" transform="translate(-10.654 -8.643)"/></svg>