<svg xmlns="http://www.w3.org/2000/svg" width="96.22" height="103.042" viewBox="0 0 96.22 103.042"><defs><style>.a{fill:none;stroke:#dfdfdf;stroke-linecap:round;stroke-linejoin:round;stroke-miterlimit:10;stroke-width:0.72px;}</style></defs><path class="a" d="M85.038,73.8c7.824,3.411,9.451,12.719,6.822,20.182m-52.868-25.3C47.519,53.337,54.341,43.1,61.163,19.229m0,0C64.573,43.1,69.69,56.748,76.511,72.435M59.1,75.842,56.384,87.616c0,11.767,8.189,23.705,23.705,23.705,15.178,0,25.411-10.233,25.411-23.705,0-11.771-6.822-20.636-18.76-20.636a11.611,11.611,0,0,0-10.233,5.454,11.4,11.4,0,0,0-6.9-2.043C61.163,70.392,56.384,78.919,56.384,87.616ZM44.108,94.267c2.415-2.63,3.411-6.774,3.411-10.233,0-3.411-.986-7.749-3.411-10.233M35.581,9C27.054,9,16.822,12.407,10,19.229c6.822,6.822,17.054,10.233,25.581,10.233,11.938,0,18.76-3.411,25.581-10.233C54.341,12.407,47.519,9,35.581,9ZM59.1,75.846c-2.712-7.159-12.34-12.105-20.1-7.159a12.438,12.438,0,0,0-8.527-3.54c-10.233,0-17.054,6.951-17.054,20.595,0,15.352,8.527,25.581,23.876,25.581,10.233,0,17.054-5.113,20.465-13.643" transform="translate(-9.64 -8.64)"/></svg>